<svg width="20" height="20" viewBox="0 0 20 20" fill="none" xmlns="http://www.w3.org/2000/svg">
<path fill-rule="evenodd" clip-rule="evenodd" d="M15.1603 1.61546H18.0769C18.5897 1.61546 19.1026 1.80551 19.4551 2.15394C19.8077 2.50238 20 2.97751 20 3.516V18.0995C20 18.6063 19.8077 19.0814 19.4551 19.4298C19.1026 19.7783 18.6218 20 18.0769 20H1.92308C1.41026 20 0.929487 19.7783 0.576923 19.4298C0.224359 19.0814 0 18.6063 0 18.0995V3.516C0 2.97751 0.224359 2.50238 0.576923 2.15394C0.929487 1.80551 1.41026 1.61546 1.92308 1.61546H4.83974V1.10865C4.83974 0.823567 4.96795 0.538486 5.16026 0.348432C5.38462 0.126703 5.67308 0 5.96154 0C6.28205 0 6.57051 0.126703 6.76282 0.348432C6.98718 0.538486 7.11538 0.823567 7.11538 1.10865V1.61546H12.9167V1.10865C12.9167 0.823567 13.0449 0.538486 13.2372 0.348432C13.4615 0.126703 13.7179 0 14.0385 0C14.359 0 14.6154 0.126703 14.8397 0.348432C15.0321 0.538486 15.1603 0.823567 15.1603 1.10865V1.61546ZM19.3589 5.41654H0.640999V18.0995C0.640999 18.4479 0.801255 18.7647 1.02561 18.9864C1.24997 19.2081 1.57049 19.3665 1.92305 19.3665H18.0769C18.4295 19.3665 18.75 19.2081 18.9743 18.9864C19.2307 18.7647 19.3589 18.4479 19.3589 18.0995V5.41654ZM19.3589 4.78302H0.640999V3.516C0.640999 3.16756 0.801255 2.85081 1.02561 2.5974C1.28202 2.37567 1.60254 2.24897 1.92305 2.24897H4.83972V2.72411C4.83972 3.00919 4.96792 3.29427 5.16023 3.516C5.38459 3.70605 5.67305 3.83275 5.96151 3.83275C6.28202 3.83275 6.57049 3.70605 6.76279 3.516C6.98715 3.29427 7.11536 3.00919 7.11536 2.72411V2.24897H12.9166V2.72411C12.9166 3.00919 13.0448 3.29427 13.2372 3.516C13.4615 3.70605 13.7179 3.83275 14.0384 3.83275C14.3589 3.83275 14.6474 3.70605 14.8397 3.516C15.032 3.29427 15.1602 3.00919 15.1602 2.72411V2.24897H18.0769C18.4295 2.24897 18.75 2.37567 18.9743 2.5974C19.2307 2.85081 19.3589 3.16756 19.3589 3.516V4.78302ZM14.0385 0.633511C13.9103 0.633511 13.7821 0.696863 13.6859 0.79189C13.6218 0.855241 13.5577 0.981943 13.5577 1.10865V2.7241C13.5577 2.85081 13.6218 2.97751 13.6859 3.04086C13.7821 3.13589 13.9103 3.19924 14.0385 3.19924C14.1667 3.19924 14.2949 3.13589 14.391 3.04086C14.4551 2.97751 14.5192 2.85081 14.5192 2.7241V1.10865C14.5192 0.981943 14.4551 0.855241 14.391 0.79189C14.2949 0.696863 14.1667 0.633511 14.0385 0.633511ZM5.64102 0.79189C5.70512 0.696863 5.83333 0.633511 5.96153 0.633511C6.08974 0.633511 6.21794 0.696863 6.3141 0.79189C6.41025 0.855241 6.4423 0.981943 6.4423 1.10865V2.7241C6.4423 2.85081 6.41025 2.97751 6.3141 3.04086C6.21794 3.13589 6.08974 3.19924 5.96153 3.19924C5.83333 3.19924 5.70512 3.13589 5.64102 3.04086C5.54487 2.97751 5.48076 2.85081 5.48076 2.7241V1.10865C5.48076 0.981943 5.54487 0.855241 5.64102 0.79189ZM2.75 7.5H3.75C3.88807 7.5 4 7.61193 4 7.75V8.75C4 8.88807 3.88807 9 3.75 9H2.75C2.61193 9 2.5 8.88807 2.5 8.75V7.75C2.5 7.61193 2.61193 7.5 2.75 7.5ZM8.25 7.5H7.25C7.11193 7.5 7 7.61193 7 7.75V8.75C7 8.88807 7.11193 9 7.25 9H8.25C8.38807 9 8.5 8.88807 8.5 8.75V7.75C8.5 7.61193 8.38807 7.5 8.25 7.5ZM11.75 7.5H12.75C12.8881 7.5 13 7.61193 13 7.75V8.75C13 8.88807 12.8881 9 12.75 9H11.75C11.6119 9 11.5 8.88807 11.5 8.75V7.75C11.5 7.61193 11.6119 7.5 11.75 7.5ZM17.25 7.5H16.25C16.1119 7.5 16 7.61193 16 7.75V8.75C16 8.88807 16.1119 9 16.25 9H17.25C17.3881 9 17.5 8.88807 17.5 8.75V7.75C17.5 7.61193 17.3881 7.5 17.25 7.5ZM2.75 11.5H3.75C3.88807 11.5 4 11.6119 4 11.75V12.75C4 12.8881 3.88807 13 3.75 13H2.75C2.61193 13 2.5 12.8881 2.5 12.75V11.75C2.5 11.6119 2.61193 11.5 2.75 11.5ZM8.25 11.5H7.25C7.11193 11.5 7 11.6119 7 11.75V12.75C7 12.8881 7.11193 13 7.25 13H8.25C8.38807 13 8.5 12.8881 8.5 12.75V11.75C8.5 11.6119 8.38807 11.5 8.25 11.5ZM11.75 11.5H12.75C12.8881 11.5 13 11.6119 13 11.75V12.75C13 12.8881 12.8881 13 12.75 13H11.75C11.6119 13 11.5 12.8881 11.5 12.75V11.75C11.5 11.6119 11.6119 11.5 11.75 11.5ZM17.25 11.5H16.25C16.1119 11.5 16 11.6119 16 11.75V12.75C16 12.8881 16.1119 13 16.25 13H17.25C17.3881 13 17.5 12.8881 17.5 12.75V11.75C17.5 11.6119 17.3881 11.5 17.25 11.5ZM2.75 15.5H3.75C3.88807 15.5 4 15.6119 4 15.75V16.75C4 16.8881 3.88807 17 3.75 17H2.75C2.61193 17 2.5 16.8881 2.5 16.75V15.75C2.5 15.6119 2.61193 15.5 2.75 15.5ZM8.25 15.5H7.25C7.11193 15.5 7 15.6119 7 15.75V16.75C7 16.8881 7.11193 17 7.25 17H8.25C8.38807 17 8.5 16.8881 8.5 16.75V15.75C8.5 15.6119 8.38807 15.5 8.25 15.5ZM11.75 15.5H12.75C12.8881 15.5 13 15.6119 13 15.75V16.75C13 16.8881 12.8881 17 12.75 17H11.75C11.6119 17 11.5 16.8881 11.5 16.75V15.75C11.5 15.6119 11.6119 15.5 11.75 15.5ZM17.25 15.5H16.25C16.1119 15.5 16 15.6119 16 15.75V16.75C16 16.8881 16.1119 17 16.25 17H17.25C17.3881 17 17.5 16.8881 17.5 16.75V15.75C17.5 15.6119 17.3881 15.5 17.25 15.5Z" fill="#9B9CA4"/>
<mask id="mask0" mask-type="alpha" maskUnits="userSpaceOnUse" x="0" y="0" width="20" height="20">
<path fill-rule="evenodd" clip-rule="evenodd" d="M15.1603 1.61546H18.0769C18.5897 1.61546 19.1026 1.80551 19.4551 2.15394C19.8077 2.50238 20 2.97751 20 3.516V18.0995C20 18.6063 19.8077 19.0814 19.4551 19.4298C19.1026 19.7783 18.6218 20 18.0769 20H1.92308C1.41026 20 0.929487 19.7783 0.576923 19.4298C0.224359 19.0814 0 18.6063 0 18.0995V3.516C0 2.97751 0.224359 2.50238 0.576923 2.15394C0.929487 1.80551 1.41026 1.61546 1.92308 1.61546H4.83974V1.10865C4.83974 0.823567 4.96795 0.538486 5.16026 0.348432C5.38462 0.126703 5.67308 0 5.96154 0C6.28205 0 6.57051 0.126703 6.76282 0.348432C6.98718 0.538486 7.11538 0.823567 7.11538 1.10865V1.61546H12.9167V1.10865C12.9167 0.823567 13.0449 0.538486 13.2372 0.348432C13.4615 0.126703 13.7179 0 14.0385 0C14.359 0 14.6154 0.126703 14.8397 0.348432C15.0321 0.538486 15.1603 0.823567 15.1603 1.10865V1.61546ZM19.3589 5.41654H0.640999V18.0995C0.640999 18.4479 0.801255 18.7647 1.02561 18.9864C1.24997 19.2081 1.57049 19.3665 1.92305 19.3665H18.0769C18.4295 19.3665 18.75 19.2081 18.9743 18.9864C19.2307 18.7647 19.3589 18.4479 19.3589 18.0995V5.41654ZM19.3589 4.78302H0.640999V3.516C0.640999 3.16756 0.801255 2.85081 1.02561 2.5974C1.28202 2.37567 1.60254 2.24897 1.92305 2.24897H4.83972V2.72411C4.83972 3.00919 4.96792 3.29427 5.16023 3.516C5.38459 3.70605 5.67305 3.83275 5.96151 3.83275C6.28202 3.83275 6.57049 3.70605 6.76279 3.516C6.98715 3.29427 7.11536 3.00919 7.11536 2.72411V2.24897H12.9166V2.72411C12.9166 3.00919 13.0448 3.29427 13.2372 3.516C13.4615 3.70605 13.7179 3.83275 14.0384 3.83275C14.3589 3.83275 14.6474 3.70605 14.8397 3.516C15.032 3.29427 15.1602 3.00919 15.1602 2.72411V2.24897H18.0769C18.4295 2.24897 18.75 2.37567 18.9743 2.5974C19.2307 2.85081 19.3589 3.16756 19.3589 3.516V4.78302ZM14.0385 0.633511C13.9103 0.633511 13.7821 0.696863 13.6859 0.79189C13.6218 0.855241 13.5577 0.981943 13.5577 1.10865V2.7241C13.5577 2.85081 13.6218 2.97751 13.6859 3.04086C13.7821 3.13589 13.9103 3.19924 14.0385 3.19924C14.1667 3.19924 14.2949 3.13589 14.391 3.04086C14.4551 2.97751 14.5192 2.85081 14.5192 2.7241V1.10865C14.5192 0.981943 14.4551 0.855241 14.391 0.79189C14.2949 0.696863 14.1667 0.633511 14.0385 0.633511ZM5.64102 0.79189C5.70512 0.696863 5.83333 0.633511 5.96153 0.633511C6.08974 0.633511 6.21794 0.696863 6.3141 0.79189C6.41025 0.855241 6.4423 0.981943 6.4423 1.10865V2.7241C6.4423 2.85081 6.41025 2.97751 6.3141 3.04086C6.21794 3.13589 6.08974 3.19924 5.96153 3.19924C5.83333 3.19924 5.70512 3.13589 5.64102 3.04086C5.54487 2.97751 5.48076 2.85081 5.48076 2.7241V1.10865C5.48076 0.981943 5.54487 0.855241 5.64102 0.79189ZM2.75 7.5H3.75C3.88807 7.5 4 7.61193 4 7.75V8.75C4 8.88807 3.88807 9 3.75 9H2.75C2.61193 9 2.5 8.88807 2.5 8.75V7.75C2.5 7.61193 2.61193 7.5 2.75 7.5ZM8.25 7.5H7.25C7.11193 7.5 7 7.61193 7 7.75V8.75C7 8.88807 7.11193 9 7.25 9H8.25C8.38807 9 8.5 8.88807 8.5 8.75V7.75C8.5 7.61193 8.38807 7.5 8.25 7.5ZM11.75 7.5H12.75C12.8881 7.5 13 7.61193 13 7.75V8.75C13 8.88807 12.8881 9 12.75 9H11.75C11.6119 9 11.5 8.88807 11.5 8.75V7.75C11.5 7.61193 11.6119 7.5 11.75 7.5ZM17.25 7.5H16.25C16.1119 7.5 16 7.61193 16 7.75V8.75C16 8.88807 16.1119 9 16.25 9H17.25C17.3881 9 17.5 8.88807 17.5 8.75V7.75C17.5 7.61193 17.3881 7.5 17.25 7.5ZM2.75 11.5H3.75C3.88807 11.5 4 11.6119 4 11.75V12.75C4 12.8881 3.88807 13 3.75 13H2.75C2.61193 13 2.5 12.8881 2.5 12.75V11.75C2.5 11.6119 2.61193 11.5 2.75 11.5ZM8.25 11.5H7.25C7.11193 11.5 7 11.6119 7 11.75V12.75C7 12.8881 7.11193 13 7.25 13H8.25C8.38807 13 8.5 12.8881 8.5 12.75V11.75C8.5 11.6119 8.38807 11.5 8.25 11.5ZM11.75 11.5H12.75C12.8881 11.5 13 11.6119 13 11.75V12.75C13 12.8881 12.8881 13 12.75 13H11.75C11.6119 13 11.5 12.8881 11.5 12.75V11.75C11.5 11.6119 11.6119 11.5 11.75 11.5ZM17.25 11.5H16.25C16.1119 11.5 16 11.6119 16 11.75V12.75C16 12.8881 16.1119 13 16.25 13H17.25C17.3881 13 17.5 12.8881 17.5 12.75V11.75C17.5 11.6119 17.3881 11.5 17.25 11.5ZM2.75 15.5H3.75C3.88807 15.5 4 15.6119 4 15.75V16.75C4 16.8881 3.88807 17 3.75 17H2.75C2.61193 17 2.5 16.8881 2.5 16.75V15.75C2.5 15.6119 2.61193 15.5 2.75 15.5ZM8.25 15.5H7.25C7.11193 15.5 7 15.6119 7 15.75V16.75C7 16.8881 7.11193 17 7.25 17H8.25C8.38807 17 8.5 16.8881 8.5 16.75V15.75C8.5 15.6119 8.38807 15.5 8.25 15.5ZM11.75 15.5H12.75C12.8881 15.5 13 15.6119 13 15.75V16.75C13 16.8881 12.8881 17 12.75 17H11.75C11.6119 17 11.5 16.8881 11.5 16.75V15.75C11.5 15.6119 11.6119 15.5 11.75 15.5ZM17.25 15.5H16.25C16.1119 15.5 16 15.6119 16 15.75V16.75C16 16.8881 16.1119 17 16.25 17H17.25C17.3881 17 17.5 16.8881 17.5 16.75V15.75C17.5 15.6119 17.3881 15.5 17.25 15.5Z" fill="white"/>
</mask>
<g mask="url(#mask0)">
</g>
</svg>
